<svg xmlns="http://www.w3.org/2000/svg" xmlns:xlink="http://www.w3.org/1999/xlink" width="29" height="32" version="1.1" viewBox="0 0 29 32"><title>icon-poseidon</title><defs><linearGradient id="linearGradient-1" x1="50%" x2="50%" y1="0%" y2="100%"><stop offset="0%" stop-color="#5CACF4"/><stop offset="100%" stop-color="#1B74C5"/></linearGradient></defs><g id="Dashboard" fill="none" fill-rule="evenodd" stroke="none" stroke-width="1"><g id="Dashboard-/-Default" fill="url(#linearGradient-1)" fill-rule="nonzero" transform="translate(-14.000000, -11.000000)"><g id="icon-poseidon" transform="translate(14.000000, 11.000000)"><path id="Path-2" d="M14.713651,0.0833000057 L18.3449012,2.80812019 L16.6646211,5.04756034 L15.93972,4.50430001 L15.93672,17.5943 L21.3445415,19.5644413 L25.0455117,1.82098012 L28.980282,5.73251039 L28,8 L26.7325818,7.44695051 L23.4253616,23.3023016 L15.93672,20.5753 L15.9343811,31.0237823 L13.4843809,31.0237823 L13.48672,20.5633 L5.96638041,23.3023016 L2.66735018,7.44695051 L1,8 L0.419720029,5.73251039 L4.3558903,1.81972012 L8.04860055,19.5644413 L13.48672,17.5823 L13.48972,4.50030001 L12.7613509,5.04756034 L11.0810708,2.80812019 L14.713651,0.0833000057 Z"/></g></g></g></svg>