<svg xmlns="http://www.w3.org/2000/svg" xmlns:xlink="http://www.w3.org/1999/xlink" width="40" height="43" version="1.1" viewBox="0 0 40 43"><title>primeng-logo-horizontal</title><defs><polygon id="path-1" points="20.005 0 20.005 0 20.005 0 .052 7.087 3.095 33.367 20.005 42.696 20.005 42.696 20.005 42.696 36.915 33.367 39.958 7.087"/></defs><g id="Page-1" fill="none" fill-rule="evenodd" stroke="none" stroke-width="1"><g id="primeng-logo-horizontal"><g id="icon-primeng"><g><g id="prime-logo"><mask id="mask-2" fill="#fff"><use xlink:href="#path-1"/></mask><use id="Shape" fill="#DD0031" fill-rule="nonzero" xlink:href="#path-1"/><polygon id="Shape-path" fill="#C3002F" points="20.005 0 20.005 4.739 20.005 4.718 20.005 26.343 20.005 26.343 20.005 42.696 20.005 42.696 36.915 33.367 39.958 7.087" mask="url(#mask-2)"/></g><g id="head" fill="#FFF" transform="translate(7.775680, 7.492928)"><polygon id="chick-right" fill-rule="nonzero" points="18.078 12.756 16.164 12.331 17.652 14.457 17.652 21.048 22.757 16.796 22.757 9.567 20.417 10.418"/><polygon id="chick-left" fill-rule="nonzero" points="3.403 12.756 1.489 12.331 2.978 14.457 2.978 21.048 8.082 16.796 8.082 9.567 5.742 10.418" transform="translate(4.785270, 15.307459) scale(-1, 1) translate(-4.785270, -15.307459)"/><polygon id="mask" points="7.21 14.856 8.907 12.3 9.967 12.939 14.208 12.939 15.269 12.3 16.965 14.856 16.965 24.443 15.693 26.36 14.208 27.851 9.967 27.851 8.483 26.36 7.21 24.443"/><polygon id="bottom-chick-right" fill-rule="nonzero" points="17.652 25.087 20.417 22.323 20.417 19.56 17.652 21.898"/><polygon id="bottom-chick-left" fill-rule="nonzero" points="3.828 25.087 6.593 22.323 6.593 19.56 3.828 21.898" transform="translate(5.210627, 22.323377) scale(-1, 1) translate(-5.210627, -22.323377)"/><path d="M12.5480414,12.1184048 L12.5480414,0 L14.8875067,0 L16.581,4.023 L24.4580468,3.40165748 L23.1819748,8.71674729 L14.0367921,12.1184048 L12.5480414,12.1184048 Z M11.6973267,0 L11.6973267,12.1184048 L10.4212547,12.1184048 L1.27607201,8.71674729 L0,3.40165748 L7.663,4.022 L9.35786138,0 L11.6973267,0 Z"/><polygon id="ear-right" fill-rule="nonzero" points="17.014 3.402 21.481 2.976 18.503 0 15.526 0"/><polygon id="ear-left" fill-rule="nonzero" points="4.254 3.402 8.72 2.976 5.742 0 2.765 0" transform="translate(5.742324, 1.700829) scale(-1, 1) translate(-5.742324, -1.700829)"/></g></g></g></g></g></svg>